HIERARCHY
ROOT Hips
{
	OFFSET 0.00000 0.00000 0.00000
	CHANNELS 6 Xposition Yposition Zposition Zrotation Yrotation Xrotation 
	JOINT LHipJoint
	{
		OFFSET 0 0 0
		CHANNELS 3 Zrotation Yrotation Xrotation
		JOINT LeftHip
		{
			OFFSET 1.62067 -1.77917 0.70989
			CHANNELS 3 Zrotation Yrotation Xrotation
			JOINT LeftKnee
			{
				OFFSET 2.34532 -6.44371 0.00000
				CHANNELS 3 Zrotation Yrotation Xrotation
				JOINT LeftAnkle
				{
					OFFSET 2.74224 -7.53425 0.00000
					CHANNELS 3 Zrotation Yrotation Xrotation
					JOINT LeftToe
					{
						OFFSET 0.17032 -0.46794 2.08086
						CHANNELS 3 Zrotation Yrotation Xrotation
						End Site
						{
							OFFSET 0.00000 -0.00000 1.07476
						}
					}
				}
			}
		}
	}
	JOINT RHipJoint
	{
		OFFSET 0 0 0
		CHANNELS 3 Zrotation Yrotation Xrotation
		JOINT RightHip
		{
			OFFSET -1.55811 -1.77917 0.70989
			CHANNELS 3 Zrotation Yrotation Xrotation
			JOINT RightKnee
			{
				OFFSET -2.33243 -6.40830 0.00000
				CHANNELS 3 Zrotation Yrotation Xrotation
				JOINT RightAnkle
				{
					OFFSET -2.78798 -7.65993 0.00000
					CHANNELS 3 Zrotation Yrotation Xrotation
					JOINT RightToe
					{
						OFFSET -0.22707 -0.62388 2.04059
						CHANNELS 3 Zrotation Yrotation Xrotation
						End Site
						{
							OFFSET -0.00000 -0.00000 1.07030
						}
					}
				}
			}
		}
	}
	JOINT lowerback
	{
		OFFSET 0 0 0
		CHANNELS 3 Zrotation Yrotation Xrotation
		JOINT Chest
		{
			OFFSET 0.02203 1.91565 0.07161
			CHANNELS 3 Zrotation Yrotation Xrotation
			JOINT Chest2
			{
				OFFSET 0.01740 1.90525 0.11636
				CHANNELS 3 Zrotation Yrotation Xrotation
				JOINT lowerneck
				{
					OFFSET 0 0 0
					CHANNELS 3 Zrotation Yrotation Xrotation
					JOINT Neck
					{
						OFFSET -0.10841 1.83566 0.05067
						CHANNELS 3 Zrotation Yrotation Xrotation
						JOINT Head
						{
							OFFSET 0.06601 1.74760 -0.50505
							CHANNELS 3 Zrotation Yrotation Xrotation
							End Site
							{
								OFFSET 0.03102 1.85215 -0.17697
							}
						}
					}
				}
				JOINT LeftCollar
				{
					OFFSET 0 0 0
					CHANNELS 3 Zrotation Yrotation Xrotation
					JOINT LeftShoulder
					{
						OFFSET 2.87059 1.35470 0.16111
CHANNELS 3 Zrotation Xrotation Yrotation
						JOINT LeftElbow
						{
OFFSET 0 -5.435920 0.000000
CHANNELS 3 Zrotation Xrotation Yrotation
							JOINT LeftWrist
							{
OFFSET 0 -3.254600 0.000000
CHANNELS 3 Zrotation Xrotation Yrotation
								JOINT lhand
								{
									OFFSET 0 0 0
CHANNELS 3 Zrotation Xrotation Yrotation
									JOINT LFingers
									{
OFFSET 0 -0.498240 0.000000
CHANNELS 3 Zrotation Xrotation Yrotation
										End Site
										{
OFFSET 0 -0.401700 0.000000
										}
									}
								}
								JOINT LThumb
								{
OFFSET 0 0.000000 0.000000
CHANNELS 3 Zrotation Xrotation Yrotation
									End Site
									{
OFFSET 0 -0.407830 0.407830
									}
								}
							}
						}
					}
				}
				JOINT RightCollar
				{
					OFFSET 0 0 0
					CHANNELS 3 Zrotation Yrotation Xrotation
					JOINT RightShoulder
					{
						OFFSET -2.86643 1.23488 0.45957
CHANNELS 3 Zrotation Xrotation Yrotation
						JOINT RightElbow
						{
OFFSET 0 -5.338300 0.000000
CHANNELS 3 Zrotation Xrotation Yrotation
							JOINT RightWrist
							{
OFFSET 0 -3.231480 0.000000
CHANNELS 3 Zrotation Xrotation Yrotation
								JOINT rhand
								{
									OFFSET 0 0 0
CHANNELS 3 Zrotation Xrotation Yrotation
									JOINT RFingers
									{
OFFSET 0 -0.463640 0.000000
CHANNELS 3 Zrotation Xrotation Yrotation
										End Site
										{
OFFSET 0 -0.373800 0.000000
										}
									}
								}
								JOINT RThumb
								{
OFFSET 0 0.000000 0.000000
CHANNELS 3 Zrotation Xrotation Yrotation
									End Site
									{
OFFSET 0 -0.379510 0.379510
									}
								}
							}
						}
					}
				}
			}
		}
	}
}
MOTION
Frames: 11
Frame Time: 0.008333333333333333
4.858124 16.763987 2.678845 -1.512550 -16.776526 8.662348 0.000000 0.000000 0.000000 -27.460899 -4.682107 -28.406329 4.839404 13.200615 40.124235 1.369143 0.348961 -22.259434 0.706427 5.371660 14.971772 0.000000 0.000000 0.000000 8.927713 14.323982 -53.513105 -3.067992 -10.804312 31.622763 -3.752869 -13.981771 35.165448 -0.031237 -1.130637 3.108448 0.232307 0.816737 1.720516 -0.629910 1.080255 -1.780759 -0.820919 0.527046 -2.774966 -1.071918 0.546106 -11.818090 0.156477 0.815214 40.812983 0.370663 0.084634 16.730919 0.000000 0.000000 0.000000 62.894421 -30.612740 -11.508992 100.288540 -59.596171 68.898026 25.745907 -72.683232 25.570130 0.000000 0.000000 0.000000 -7.125000 0.000000 0.000000 -2.388529 2.023225 -2.304736 0.000000 0.000000 0.000000 -54.692479 -23.886709 27.805593 -125.555677 -54.637911 -90.237697 -5.582225 -33.944915 40.085577 0.000000 0.000000 0.000000 7.125000 0.000000 0.000000 39.648005 66.040099 -21.574236
4.853883 16.753776 2.673224 -1.606881 -16.744665 8.666516 0.000000 0.000000 0.000000 -27.317631 -4.588083 -28.582634 4.886198 13.254467 40.328682 1.369229 0.119973 -22.180060 0.748839 5.526615 15.417025 0.000000 0.000000 0.000000 9.099252 14.460438 -53.522586 -3.049072 -10.774068 31.521711 -3.794349 -13.740796 35.352990 -0.026595 -1.051217 2.889803 0.215153 0.782581 1.801713 -0.615438 1.034820 -1.713275 -0.795172 0.505140 -2.752446 -0.925025 0.582867 -11.941345 0.030195 0.881266 40.805096 0.299344 0.116977 16.759339 0.000000 0.000000 0.000000 62.491620 -30.608710 -11.882643 100.283174 -59.596636 68.893390 25.755551 -72.454019 25.148312 0.000000 0.000000 0.000000 -7.125000 0.000000 0.000000 -2.325169 2.469161 -2.224934 0.000000 0.000000 0.000000 -54.322972 -23.838363 28.191970 -125.265593 -54.734794 -90.000870 -5.347069 -33.795867 40.484228 0.000000 0.000000 0.000000 7.125000 0.000000 0.000000 40.501166 66.267378 -22.311588
4.852184 16.750584 2.664181 -1.768268 -16.590706 8.732750 0.000000 0.000000 0.000000 -27.095948 -4.613286 -28.763890 4.932299 13.307133 40.529345 1.367206 -0.015717 -22.117516 0.767877 5.595642 15.615641 0.000000 0.000000 0.000000 9.319085 14.487089 -53.539946 -3.035581 -10.752421 31.449492 -3.789321 -13.678255 35.326496 -0.032239 -1.158558 3.185270 0.286476 0.721226 2.012877 -0.568216 0.956204 -1.793839 -0.787358 0.464012 -2.955353 -0.899865 0.634224 -11.903646 0.043636 0.945820 40.885573 0.311684 0.147894 16.793752 0.000000 0.000000 0.000000 61.947234 -30.526262 -12.485269 100.329385 -59.592966 68.933260 25.841218 -72.207672 24.545106 0.000000 0.000000 0.000000 -7.125000 0.000000 0.000000 -2.192388 3.093182 -2.072813 0.000000 0.000000 0.000000 -53.822079 -23.807495 28.790152 -124.790138 -54.891809 -89.612292 -5.435859 -33.243233 40.833033 0.000000 0.000000 0.000000 7.125000 0.000000 0.000000 40.961352 66.551705 -22.857389
4.853200 16.746651 2.660900 -1.802165 -16.492666 8.675740 0.000000 0.000000 0.000000 -27.054583 -4.563160 -28.801114 4.971680 13.351830 40.700125 1.376488 -0.080911 -22.170759 0.760462 5.569147 15.539425 0.000000 0.000000 0.000000 9.529494 14.346302 -53.529490 -3.030828 -10.744800 31.423912 -3.791487 -13.130585 35.320375 -0.023302 -0.968396 2.662067 0.308446 0.682696 2.200593 -0.575840 0.905142 -1.822348 -0.808236 0.437440 -3.090897 -0.983855 0.631726 -11.921424 0.174435 0.912853 40.997573 0.380192 0.137253 16.858920 0.000000 0.000000 0.000000 61.347075 -30.384907 -13.112720 100.331338 -59.592783 68.934993 25.824963 -72.005890 24.241621 0.000000 0.000000 0.000000 -7.125000 0.000000 0.000000 -2.162118 3.419577 -2.030741 0.000000 0.000000 0.000000 -53.339856 -23.704722 29.358668 -124.437636 -55.006436 -89.323793 -5.607462 -32.705983 40.661659 0.000000 0.000000 0.000000 7.125000 0.000000 0.000000 40.519802 66.476118 -22.509876
4.853514 16.739187 2.657108 -1.796790 -16.449119 8.566854 0.000000 0.000000 0.000000 -27.057347 -4.466546 -28.807354 5.005732 13.390267 40.847412 1.388706 -0.185964 -22.234873 0.715929 5.405849 15.070202 0.000000 0.000000 0.000000 9.689213 14.262658 -53.517708 -3.030593 -10.744421 31.422657 -3.787788 -13.066114 35.299003 -0.028062 -1.065748 2.929983 0.307777 0.663488 2.272325 -0.614267 0.878860 -1.712425 -0.846053 0.424473 -3.017873 -1.059595 0.573022 -12.099667 0.239464 0.821260 41.073815 0.408358 0.095134 16.946983 0.000000 0.000000 0.000000 60.815671 -30.221906 -13.560229 100.425322 -59.585237 69.016003 25.592773 -71.714894 24.097052 0.000000 0.000000 0.000000 -7.125000 0.000000 0.000000 -2.285752 3.620246 -2.138340 0.000000 0.000000 0.000000 -52.953155 -23.791625 29.701406 -124.069863 -55.123884 -89.022269 -5.499735 -32.518440 40.624485 0.000000 0.000000 0.000000 7.125000 0.000000 0.000000 40.566288 66.416935 -22.485240
4.852491 16.733432 2.652842 -1.799718 -16.424069 8.541079 0.000000 0.000000 0.000000 -27.037416 -4.437484 -28.892325 5.039525 13.428222 40.993245 1.400559 -0.263039 -22.305319 0.592404 4.919147 13.679822 0.000000 0.000000 0.000000 9.750452 14.310963 -53.543574 -3.027732 -10.739811 31.407383 -3.738953 -13.691625 35.086238 -0.054159 -1.488056 4.093122 0.287994 0.643643 2.239802 -0.648322 0.851076 -1.616230 -0.867321 0.411362 -2.900638 -1.028562 0.571355 -12.143791 0.170329 0.838589 41.079657 0.374666 0.097034 16.962262 0.000000 0.000000 0.000000 60.296650 -30.010061 -13.952155 100.779363 -59.556189 69.321301 25.268369 -71.200869 23.666007 0.000000 0.000000 0.000000 -7.125000 0.000000 0.000000 -2.430963 4.143211 -2.250673 0.000000 0.000000 0.000000 -52.588095 -23.980732 30.009424 -123.604986 -55.269882 -88.640543 -5.386098 -32.434931 40.812354 0.000000 0.000000 0.000000 7.125000 0.000000 0.000000 40.977329 66.521544 -22.840473
4.850617 16.724232 2.650105 -1.690361 -16.434771 8.525757 0.000000 0.000000 0.000000 -27.143287 -4.441731 -28.997476 5.072403 13.464875 41.134610 1.408002 -0.264123 -22.364532 0.486741 4.470406 12.404558 0.000000 0.000000 0.000000 9.711252 14.382508 -53.640564 -3.020227 -10.727755 31.367145 -3.771722 -13.176083 35.227148 -0.031116 -1.082296 2.975851 0.163541 0.644797 2.207489 -0.720367 0.846502 -1.581500 -0.870576 0.411096 -2.847486 -0.989434 0.596618 -12.026975 0.144962 0.874370 41.047430 0.361560 0.114580 16.914354 0.000000 0.000000 0.000000 59.763212 -29.952371 -14.394967 101.019824 -59.536126 69.528583 25.214762 -71.025292 23.661894 0.000000 0.000000 0.000000 -7.125000 0.000000 0.000000 -2.463137 4.158227 -2.280200 0.000000 0.000000 0.000000 -52.196197 -23.903427 30.352882 -123.350782 -55.348831 -88.431577 -5.490102 -32.232482 40.844230 0.000000 0.000000 0.000000 7.125000 0.000000 0.000000 40.925074 66.575971 -22.856292
4.847491 16.711038 2.645120 -1.616037 -16.437663 8.501914 0.000000 0.000000 0.000000 -27.210494 -4.423498 -29.084963 5.096506 13.491703 41.238002 1.407508 -0.252787 -22.364306 0.457318 4.338257 12.030346 0.000000 0.000000 0.000000 9.722996 14.486020 -53.710862 -3.005156 -10.703408 31.286156 -3.867563 -12.347875 35.671151 -0.008303 -0.561648 1.543361 0.063519 0.654715 2.225501 -0.791945 0.854551 -1.535658 -0.888183 0.416563 -2.810717 -0.985968 0.564846 -11.995673 0.169651 0.813927 41.004918 0.361319 0.093976 16.882937 0.000000 0.000000 0.000000 59.294469 -30.028184 -14.803697 101.021627 -59.535994 69.530088 25.388266 -71.095922 24.006038 0.000000 0.000000 0.000000 -7.125000 0.000000 0.000000 -2.399652 3.757894 -2.239099 0.000000 0.000000 0.000000 -51.744017 -23.664069 30.660134 -123.334162 -55.353952 -88.417861 -5.540750 -31.991672 40.935810 0.000000 0.000000 0.000000 7.125000 0.000000 0.000000 41.022234 66.658277 -22.992927
4.847370 16.708193 2.645062 -1.658142 -16.377347 8.521520 0.000000 0.000000 0.000000 -27.166482 -4.412267 -29.124579 5.109034 13.505527 41.291562 1.410032 -0.268678 -22.379618 0.489933 4.486979 12.451124 0.000000 0.000000 0.000000 9.829948 14.491734 -53.689275 -2.986154 -10.672573 31.183545 -3.853395 -13.162146 35.619935 -0.042249 -1.252598 3.444834 0.101729 0.635628 2.143401 -0.814842 0.830456 -1.471221 -0.930287 0.404047 -2.697548 -1.066855 0.504530 -11.988264 0.235229 0.718410 40.937903 0.388683 0.051514 16.843706 0.000000 0.000000 0.000000 58.838751 -29.989407 -15.218150 100.913607 -59.545127 69.437013 25.447295 -71.022751 24.141758 0.000000 0.000000 0.000000 -7.125000 0.000000 0.000000 -2.380501 3.601856 -2.228271 0.000000 0.000000 0.000000 -51.303147 -23.495648 30.988766 -123.235816 -55.384140 -88.336925 -5.590555 -31.766094 40.979788 0.000000 0.000000 0.000000 7.125000 0.000000 0.000000 41.043635 66.705464 -23.049213
4.850725 16.718737 2.644859 -1.723743 -16.252722 8.530302 0.000000 0.000000 0.000000 -27.102760 -4.428790 -29.102153 5.119454 13.517035 41.336139 1.417331 -0.310220 -22.424164 0.529629 4.662834 12.949528 0.000000 0.000000 0.000000 9.970086 14.383371 -53.603194 -2.967055 -10.641460 31.080027 -3.734803 -14.636880 35.119073 -0.134495 -2.326493 6.410250 0.205424 0.581921 2.027051 -0.818242 0.762981 -1.373102 -0.986676 0.369369 -2.530874 -1.120349 0.496831 -12.065835 0.284092 0.703932 40.951571 0.418075 0.043403 16.870602 0.000000 0.000000 0.000000 58.370671 -29.913906 -15.616486 100.703517 -59.562645 69.255898 25.416246 -70.917573 24.168205 0.000000 0.000000 0.000000 -7.125000 0.000000 0.000000 -2.402896 3.579844 -2.250235 0.000000 0.000000 0.000000 -50.943941 -23.485795 31.333207 -122.977082 -55.462915 -88.123949 -5.682068 -31.617094 40.847456 0.000000 0.000000 0.000000 7.125000 0.000000 0.000000 40.740193 66.635614 -22.792294
4.850250 16.717801 2.641035 -1.692281 -16.158556 8.479284 0.000000 0.000000 0.000000 -27.123289 -4.460441 -29.080705 5.140993 13.540876 41.428372 1.426647 -0.322782 -22.494346 0.415274 4.127973 11.438268 0.000000 0.000000 0.000000 10.072758 14.287240 -53.596063 -2.953403 -10.619255 31.006385 -3.775794 -14.768453 35.318713 -0.178675 -2.721137 7.503326 0.177583 0.522049 1.980991 -0.839760 0.682389 -1.280024 -0.988586 0.330061 -2.410812 -1.047060 0.558796 -12.215940 0.268741 0.784507 41.103135 0.412970 0.083387 16.993512 0.000000 0.000000 0.000000 57.810257 -29.731540 -16.047098 100.681309 -59.564484 69.236743 25.539156 -70.940436 24.407905 0.000000 0.000000 0.000000 -7.125000 0.000000 0.000000 -2.358650 3.300259 -2.220828 0.000000 0.000000 0.000000 -50.598460 -23.529654 31.705098 -122.750790 -55.531233 -87.937414 -5.664196 -31.613643 40.785276 0.000000 0.000000 0.000000 7.125000 0.000000 0.000000 40.658203 66.584561 -22.693928
